<mxfile host="app.diagrams.net" agent="Mozilla/5.0 (Windows NT 10.0; Win64; x64) AppleWebKit/537.36 (KHTML, like Gecko) Chrome/137.0.0.0 Safari/537.36" version="27.1.6">
  <diagram name="Page-1" id="cIgY84DAoFuzc7pD4oS4">
    <mxGraphModel dx="1181" dy="630" grid="1" gridSize="10" guides="1" tooltips="1" connect="1" arrows="1" fold="1" page="1" pageScale="1" pageWidth="850" pageHeight="1100" math="0" shadow="0">
      <root>
        <mxCell id="0" />
        <mxCell id="1" parent="0" />
        <mxCell id="zh1SauSJ9O_O9cCSvMAp-4" value="Action Candidates" style="edgeStyle=orthogonalEdgeStyle;rounded=0;orthogonalLoop=1;jettySize=auto;html=1;entryX=0;entryY=0.5;entryDx=0;entryDy=0;" edge="1" parent="1" source="khobj_PX3sM-Y_5c9IbG-1" target="zh1SauSJ9O_O9cCSvMAp-3">
          <mxGeometry relative="1" as="geometry" />
        </mxCell>
        <mxCell id="khobj_PX3sM-Y_5c9IbG-1" value="LLM Momentum Trader" style="rounded=1;whiteSpace=wrap;html=1;fillColor=#fad9d5;strokeColor=#ae4132;" parent="1" vertex="1">
          <mxGeometry x="110" y="220" width="120" height="60" as="geometry" />
        </mxCell>
        <mxCell id="zh1SauSJ9O_O9cCSvMAp-7" value="Action Candidates" style="edgeStyle=orthogonalEdgeStyle;rounded=0;orthogonalLoop=1;jettySize=auto;html=1;exitX=0.5;exitY=1;exitDx=0;exitDy=0;entryX=0.5;entryY=0;entryDx=0;entryDy=0;" edge="1" parent="1" source="zh1SauSJ9O_O9cCSvMAp-1" target="zh1SauSJ9O_O9cCSvMAp-3">
          <mxGeometry relative="1" as="geometry" />
        </mxCell>
        <mxCell id="zh1SauSJ9O_O9cCSvMAp-1" value="LLM Fundamental Analyst" style="rounded=1;whiteSpace=wrap;html=1;fillColor=#fad9d5;strokeColor=#ae4132;" vertex="1" parent="1">
          <mxGeometry x="330" y="220" width="120" height="60" as="geometry" />
        </mxCell>
        <mxCell id="zh1SauSJ9O_O9cCSvMAp-6" value="Action Candidates" style="edgeStyle=orthogonalEdgeStyle;rounded=0;orthogonalLoop=1;jettySize=auto;html=1;entryX=1;entryY=0.5;entryDx=0;entryDy=0;" edge="1" parent="1" source="zh1SauSJ9O_O9cCSvMAp-2" target="zh1SauSJ9O_O9cCSvMAp-3">
          <mxGeometry relative="1" as="geometry" />
        </mxCell>
        <mxCell id="zh1SauSJ9O_O9cCSvMAp-2" value="LLM Value Investor" style="rounded=1;whiteSpace=wrap;html=1;fillColor=#fad9d5;strokeColor=#ae4132;" vertex="1" parent="1">
          <mxGeometry x="540" y="220" width="120" height="60" as="geometry" />
        </mxCell>
        <mxCell id="zh1SauSJ9O_O9cCSvMAp-30" value="Trades" style="edgeStyle=orthogonalEdgeStyle;rounded=0;orthogonalLoop=1;jettySize=auto;html=1;exitX=0.5;exitY=1;exitDx=0;exitDy=0;entryX=0.5;entryY=0;entryDx=0;entryDy=0;" edge="1" parent="1" source="zh1SauSJ9O_O9cCSvMAp-3" target="zh1SauSJ9O_O9cCSvMAp-29">
          <mxGeometry relative="1" as="geometry" />
        </mxCell>
        <mxCell id="zh1SauSJ9O_O9cCSvMAp-3" value="RL Agent" style="ellipse;whiteSpace=wrap;html=1;fillColor=#b1ddf0;strokeColor=#10739e;" vertex="1" parent="1">
          <mxGeometry x="330" y="360" width="120" height="80" as="geometry" />
        </mxCell>
        <mxCell id="zh1SauSJ9O_O9cCSvMAp-9" value="State Vector" style="edgeStyle=orthogonalEdgeStyle;rounded=0;orthogonalLoop=1;jettySize=auto;html=1;exitX=1;exitY=0.5;exitDx=0;exitDy=0;entryX=0.027;entryY=0.682;entryDx=0;entryDy=0;entryPerimeter=0;" edge="1" parent="1" source="zh1SauSJ9O_O9cCSvMAp-8" target="zh1SauSJ9O_O9cCSvMAp-3">
          <mxGeometry relative="1" as="geometry" />
        </mxCell>
        <mxCell id="zh1SauSJ9O_O9cCSvMAp-8" value="State Information" style="shape=parallelogram;perimeter=parallelogramPerimeter;whiteSpace=wrap;html=1;fixedSize=1;fillColor=#d5e8d4;strokeColor=#82b366;gradientColor=#97d077;" vertex="1" parent="1">
          <mxGeometry x="110" y="410" width="120" height="60" as="geometry" />
        </mxCell>
        <mxCell id="zh1SauSJ9O_O9cCSvMAp-22" value="Training Environment" style="whiteSpace=wrap;html=1;aspect=fixed;fillColor=#d0cee2;strokeColor=#56517e;" vertex="1" parent="1">
          <mxGeometry x="630" y="410" width="120" height="120" as="geometry" />
        </mxCell>
        <mxCell id="zh1SauSJ9O_O9cCSvMAp-31" value="Tested on Market" style="edgeStyle=orthogonalEdgeStyle;rounded=0;orthogonalLoop=1;jettySize=auto;html=1;entryX=0;entryY=1;entryDx=0;entryDy=0;" edge="1" parent="1" source="zh1SauSJ9O_O9cCSvMAp-29" target="zh1SauSJ9O_O9cCSvMAp-22">
          <mxGeometry relative="1" as="geometry" />
        </mxCell>
        <mxCell id="zh1SauSJ9O_O9cCSvMAp-29" value="Portfolio" style="rounded=0;whiteSpace=wrap;html=1;fillColor=#ffcd28;strokeColor=#d79b00;gradientColor=#ffa500;" vertex="1" parent="1">
          <mxGeometry x="330" y="500" width="120" height="60" as="geometry" />
        </mxCell>
        <mxCell id="zh1SauSJ9O_O9cCSvMAp-32" value="Sharpe Ratio Reward" style="edgeStyle=orthogonalEdgeStyle;rounded=0;orthogonalLoop=1;jettySize=auto;html=1;entryX=1;entryY=0.625;entryDx=0;entryDy=0;entryPerimeter=0;" edge="1" parent="1" source="zh1SauSJ9O_O9cCSvMAp-22" target="zh1SauSJ9O_O9cCSvMAp-3">
          <mxGeometry relative="1" as="geometry" />
        </mxCell>
      </root>
    </mxGraphModel>
  </diagram>
</mxfile>
